<?xml version="1.0" encoding="UTF-8"?>
<svg version="1.1" xmlns="http://www.w3.org/2000/svg" width="182" height="180">
<path d="M0 0 C60.06 0 120.12 0 182 0 C182 59.4 182 118.8 182 180 C121.94 180 61.88 180 0 180 C0 120.6 0 61.2 0 0 Z " fill="#0152CC" transform="translate(0,0)"/>
<path d="M0 0 C1.75933838 0.07131958 1.75933838 0.07131958 4 1 C5.47905443 3.28201415 6.67091832 5.42678624 7.85058594 7.85888672 C8.39278526 8.93452377 8.39278526 8.93452377 8.94593811 10.03189087 C10.13915596 12.40789521 11.31193782 14.79336918 12.484375 17.1796875 C13.30715748 18.83069322 14.13100403 20.48116906 14.95587158 22.13113403 C16.68251565 25.59215834 18.39974478 29.05763682 20.10986328 32.52685547 C22.30441325 36.97821792 24.51633999 41.42064883 26.73464584 45.86021233 C28.43648531 49.26858787 30.13187135 52.68013819 31.82501984 56.09283829 C32.63865789 57.73219314 33.45365269 59.37087532 34.2700119 61.0088768 C35.40850071 63.29704224 36.53892325 65.58900764 37.66699219 67.88232422 C38.17653191 68.90172089 38.17653191 68.90172089 38.69636536 69.94171143 C40.10628118 72.82725349 41 74.74332537 41 78 C36.40844308 80.29577846 30.22781017 79.45472609 25.1875 79.5625 C23.90294922 79.62501953 22.61839844 79.68753906 21.29492188 79.75195312 C12.14178171 79.90919083 12.14178171 79.90919083 9.19628906 77.5637207 C7.83081487 75.43998062 6.92856532 73.34731748 6 71 C5.08159485 69.23496886 4.15127354 67.47610174 3.2109375 65.72265625 C2.26142105 63.8380497 1.31616382 61.95129168 0.375 60.0625 C-0.10195312 59.12470703 -0.57890625 58.18691406 -1.0703125 57.22070312 C-8.22693358 42.91740072 -11.59847949 29.28403407 -6.75 13.625 C-6.54552246 12.95936035 -6.34104492 12.2937207 -6.13037109 11.60791016 C-4.65488356 7.16806446 -2.71524048 3.74796014 0 0 Z " fill="#F9FBFD" transform="translate(87,51)"/>
<path d="M0 0 C3 0 3 0 4.4296875 1.29296875 C12.34178178 11.66422746 15.7414204 22.96837065 14 36 C13.01 38.31 12.02 40.62 11 43 C1.1 43 -8.8 43 -19 43 C-20.23322098 38.06711608 -18.83795537 35.98146787 -16.5625 31.75 C-15.81859648 30.31922556 -15.07511942 28.88822932 -14.33203125 27.45703125 C-13.94611816 26.72307129 -13.56020508 25.98911133 -13.16259766 25.23291016 C-10.96969149 21.02116724 -8.89117204 16.75180968 -6.79125977 12.49316406 C-4.67248919 8.23674993 -2.39092804 4.11006878 0 0 Z " fill="#C3D6F3" transform="translate(69,87)"/>
<path d="M0 0 C4 0 4 0 5.75 1.5 C6.36875 2.2425 6.36875 2.2425 7 3 C7 2.01 7 1.02 7 0 C9.64 0 12.28 0 15 0 C15 0.66 15 1.32 15 2 C14.01 2 13.02 2 12 2 C12 4.97 12 7.94 12 11 C9.36 11 6.72 11 4 11 C4 10.34 4 9.68 4 9 C1.69 9.66 -0.62 10.32 -3 11 C-2.69217504 9.35328588 -2.37860766 7.70764424 -2.0625 6.0625 C-1.88847656 5.14597656 -1.71445312 4.22945312 -1.53515625 3.28515625 C-1 1 -1 1 0 0 Z " fill="#2469D3" transform="translate(47,137)"/>
<path d="M0 0 C2.475 0.495 2.475 0.495 5 1 C5.33 1.66 5.66 2.32 6 3 C6.33 2.01 6.66 1.02 7 0 C7.66 0 8.32 0 9 0 C9 3.63 9 7.26 9 11 C5 9 5 9 4 7 C3.67 8.32 3.34 9.64 3 11 C2.01 11 1.02 11 0 11 C0 7.37 0 3.74 0 0 Z " fill="#CCDCF4" transform="translate(121,137)"/>
<path d="M0 0 C1.32 0 2.64 0 4 0 C4.50615298 1.26839526 5.00469099 2.53983102 5.5 3.8125 C5.7784375 4.52019531 6.056875 5.22789062 6.34375 5.95703125 C7 8 7 8 7 11 C4.69 10.34 2.38 9.68 0 9 C0 9.66 0 10.32 0 11 C-0.99 11 -1.98 11 -3 11 C-2.32829194 7.1936543 -1.27253436 3.64793184 0 0 Z " fill="#E0EAF8" transform="translate(112,137)"/>
<path d="M0 0 C1.32 0 2.64 0 4 0 C4.50615298 1.26839526 5.00469099 2.53983102 5.5 3.8125 C5.7784375 4.52019531 6.056875 5.22789062 6.34375 5.95703125 C7 8 7 8 7 11 C6.01 11 5.02 11 4 11 C4 10.34 4 9.68 4 9 C1.69 9.66 -0.62 10.32 -3 11 C-2.69217504 9.35328588 -2.37860766 7.70764424 -2.0625 6.0625 C-1.88847656 5.14597656 -1.71445312 4.22945312 -1.53515625 3.28515625 C-1 1 -1 1 0 0 Z " fill="#E5EDF9" transform="translate(47,137)"/>
<path d="M0 0 C1.32 0 2.64 0 4 0 C7 6.5 7 6.5 7 11 C4.69 10.34 2.38 9.68 0 9 C0 9.66 0 10.32 0 11 C-0.99 11 -1.98 11 -3 11 C-2.01 7.37 -1.02 3.74 0 0 Z " fill="#E4EDF9" transform="translate(74,137)"/>
<path d="M0 0 C1.4540625 0.0309375 1.4540625 0.0309375 2.9375 0.0625 C2.73125 0.68125 2.525 1.3 2.3125 1.9375 C2.18875 2.63875 2.065 3.34 1.9375 4.0625 C2.5975 4.7225 3.2575 5.3825 3.9375 6.0625 C3.9375 7.3825 3.9375 8.7025 3.9375 10.0625 C1.2975 10.3925 -1.3425 10.7225 -4.0625 11.0625 C-4.3925 10.0725 -4.7225 9.0825 -5.0625 8.0625 C-4.0725 7.7325 -3.0825 7.4025 -2.0625 7.0625 C-2.7225 6.7325 -3.3825 6.4025 -4.0625 6.0625 C-4.105221 4.39638095 -4.10313832 2.72867115 -4.0625 1.0625 C-3.0625 0.0625 -3.0625 0.0625 0 0 Z " fill="#CEDDF5" transform="translate(98.0625,136.9375)"/>
<path d="M0 0 C0 0.99 0 1.98 0 3 C-0.99 3.495 -0.99 3.495 -2 4 C-1.34 4.33 -0.68 4.66 0 5 C0 6.65 0 8.3 0 10 C-5.75 11.125 -5.75 11.125 -8 10 C-8 9.34 -8 8.68 -8 8 C-7.01 7.67 -6.02 7.34 -5 7 C-5.99 6.34 -6.98 5.68 -8 5 C-8 3.68 -8 2.36 -8 1 C-5.29120665 -0.35439668 -2.99066732 -0.06501451 0 0 Z " fill="#C7D8F3" transform="translate(91,137)"/>
<path d="M0 0 C0.99 0 1.98 0 3 0 C3 2.64 3 5.28 3 8 C3.99 8 4.98 8 6 8 C5.67 8.99 5.34 9.98 5 11 C3.35 11 1.7 11 0 11 C0 7.37 0 3.74 0 0 Z " fill="#CFDEF5" transform="translate(64,137)"/>
<path d="M0 0 C1.32 0 2.64 0 4 0 C3.67 2.64 3.34 5.28 3 8 C1.35 7.67 -0.3 7.34 -2 7 C-1.34 4.69 -0.68 2.38 0 0 Z " fill="#C0D4F2" transform="translate(47,137)"/>
<path d="M0 0 C2.64 0 5.28 0 8 0 C8 0.66 8 1.32 8 2 C7.01 2 6.02 2 5 2 C5 4.97 5 7.94 5 11 C4.34 11 3.68 11 3 11 C3 8.03 3 5.06 3 2 C2.01 2 1.02 2 0 2 C0 1.34 0 0.68 0 0 Z " fill="#E7EEF9" transform="translate(54,137)"/>
<path d="M0 0 C0.99 0 1.98 0 3 0 C3 3.63 3 7.26 3 11 C2.01 11 1.02 11 0 11 C0 7.37 0 3.74 0 0 Z " fill="#C4D7F3" transform="translate(104,137)"/>
<path d="M0 0 C0.99 0.33 1.98 0.66 3 1 C3 2.32 3 3.64 3 5 C4.65 5.33 6.3 5.66 8 6 C8 6.33 8 6.66 8 7 C7.05125 6.979375 6.1025 6.95875 5.125 6.9375 C2.09333717 6.77448174 2.09333717 6.77448174 0 8 C0 6.68 0 5.36 0 4 C-1.65 3.67 -3.3 3.34 -5 3 C-5 2.67 -5 2.34 -5 2 C-3.35 2 -1.7 2 0 2 C0 1.34 0 0.68 0 0 Z " fill="#1B64D1" transform="translate(91,138)"/>
<path d="M0 0 C1.32 0 2.64 0 4 0 C4.66 1.98 5.32 3.96 6 6 C4.35 6.33 2.7 6.66 1 7 C-0.0625 5.1875 -0.0625 5.1875 -1 3 C-0.67 2.01 -0.34 1.02 0 0 Z " fill="#B6CDF0" transform="translate(112,137)"/>
<path d="M0 0 C1.32 0 2.64 0 4 0 C4 1.65 4 3.3 4 5 C-1.75 6.125 -1.75 6.125 -4 5 C-4 4.34 -4 3.68 -4 3 C-2.35 3 -0.7 3 1 3 C0.67 2.01 0.34 1.02 0 0 Z " fill="#DCE7F7" transform="translate(87,142)"/>
<path d="M0 0 C0.66 0.66 1.32 1.32 2 2 C2.66 1.67 3.32 1.34 4 1 C4.33 3.31 4.66 5.62 5 8 C2.5625 7.3125 2.5625 7.3125 0 6 C-0.875 3.4375 -0.875 3.4375 -1 1 C-0.67 0.67 -0.34 0.34 0 0 Z " fill="#B0C9EE" transform="translate(76,140)"/>
<path d="M0 0 C2.35953094 2.35953094 2.49141413 3.77895617 3 7 C2.01 7.66 1.02 8.32 0 9 C-1.125 2.25 -1.125 2.25 0 0 Z " fill="#3072D5" transform="translate(80,95)"/>
<path d="M0 0 C0.33 0 0.66 0 1 0 C1 3.63 1 7.26 1 11 C0.01 10.67 -0.98 10.34 -2 10 C-2 9.01 -2 8.02 -2 7 C-1.34 7 -0.68 7 0 7 C0 4.69 0 2.38 0 0 Z " fill="#F5F8FC" transform="translate(129,137)"/>
<path d="M0 0 C1.5 1.3125 1.5 1.3125 3 3 C3 3.99 3 4.98 3 6 C0.53199953 4.84826645 -1.04783565 3.95216435 -3 2 C-2.01 2 -1.02 2 0 2 C0 1.34 0 0.68 0 0 Z " fill="#EAF0FA" transform="translate(116,142)"/>
</svg>
