<?xml version="1.0" encoding="UTF-8"?>
<svg version="1.1" xmlns="http://www.w3.org/2000/svg" width="127" height="120">
<path d="M0 0 C2.97714231 1.72296784 5.67572651 3.76724574 8.4375 5.8125 C13.28337322 9.32783705 18.29468387 11.4351032 23.87329102 13.48388672 C28.70137914 15.26387914 28.70137914 15.26387914 30.875 17.4375 C36.63668888 17.18887177 41.93973754 13.35606295 46.84179688 10.58789062 C52.57118859 7.550094 57.40266175 6.60157832 63.875 7.4375 C66.86956414 8.68523506 68.27220624 9.67030794 70.25 12.1875 C71.20508949 15.62582218 70.77921661 18.00147688 69.875 21.4375 C66.0787874 25.78837744 61.58500687 28.97747306 56.875 32.25 C56.12822998 32.77190918 55.38145996 33.29381836 54.61206055 33.83154297 C31.3472362 49.96374109 31.3472362 49.96374109 14.875 48.4375 C11.66526746 47.45996764 8.84964342 45.97178976 5.875 44.4375 C-4.17431074 40.0310199 -14.46134484 39.39039682 -25.27416992 38.67114258 C-27.125 38.4375 -27.125 38.4375 -28.125 37.4375 C-28.51234139 32.97126938 -28.61015209 28.50009914 -28.69482422 24.01977539 C-28.73140382 22.51499438 -28.7858987 21.010535 -28.85888672 19.50708008 C-29.45552337 7.02857583 -29.45552337 7.02857583 -26.18261719 3.11474609 C-18.71766616 -1.94913536 -8.42817539 -4.0331146 0 0 Z M-20.125 6.4375 C-22.38115026 8.26641377 -22.38115026 8.26641377 -22.35205078 10.95947266 C-22.34157715 11.9963623 -22.33110352 13.03325195 -22.3203125 14.1015625 C-22.31386719 15.22304687 -22.30742187 16.34453125 -22.30078125 17.5 C-22.28402344 18.675625 -22.26726563 19.85125 -22.25 21.0625 C-22.24097656 22.24585937 -22.23195313 23.42921875 -22.22265625 24.6484375 C-22.19902812 27.57832523 -22.16608514 30.5078134 -22.125 33.4375 C-20.15080078 33.58445312 -20.15080078 33.58445312 -18.13671875 33.734375 C-7.27488634 34.62626476 2.24704141 35.78535955 11.9375 41.125 C17.38904577 43.56079705 23.2555787 44.16986019 29.0625 42.625 C36.2740467 39.83179529 42.59215906 34.87016969 48.875 30.4375 C49.53918945 29.97230957 50.20337891 29.50711914 50.88769531 29.02783203 C58.20298934 24.1215334 58.20298934 24.1215334 64.875 18.4375 C65.0240712 16.3629644 65.0240712 16.3629644 63.875 14.4375 C60.58139683 12.92300555 58.66360643 12.24674503 55.09838867 13.10913086 C52.07169533 14.50434404 49.05641448 15.91044443 46.0625 17.375 C45.00095703 17.85001953 43.93941406 18.32503906 42.84570312 18.81445312 C39.97736824 20.18897829 37.40231421 21.5050518 34.875 23.4375 C33.58560508 27.06362689 33.58560508 27.06362689 33.875 30.4375 C31.97966125 33.02205285 30.98673483 33.40025506 27.875 34.4375 C19.25146997 35.17527746 12.58608026 34.31160613 4.875 30.4375 C3.93785156 29.98246094 3.00070313 29.52742188 2.03515625 29.05859375 C-0.36560968 27.87673002 -2.75014624 26.6704028 -5.125 25.4375 C-5.125 24.4475 -5.125 23.4575 -5.125 22.4375 C0.33648314 22.64755704 3.92385182 23.83113057 8.75 26.4375 C14.02718275 29.21637092 18.84406793 30.96192888 24.875 30.4375 C27.10112446 29.72075337 27.10112446 29.72075337 28.875 28.4375 C29.37 26.9525 29.37 26.9525 29.875 25.4375 C27.08880832 20.74997017 23.65229894 19.19659505 18.6875 17.5 C12.43306592 15.19152879 7.28722459 12.35860149 1.875 8.4375 C-5.70031803 3.40326967 -11.96352435 2.17852305 -20.125 6.4375 Z " fill="#8C7E70" transform="translate(42.125,71.5625)"/>
<path d="M0 0 C4.1796989 2.8497947 7.11864324 5.98092971 8.75 10.875 C9.52514301 17.43194743 8.62712917 21.53084898 4.75 26.875 C0.01550448 31.26306902 -3.69595957 32.18766678 -9.97265625 32.0859375 C-14.84541469 31.63460138 -17.93585024 29.4559493 -21.0625 25.875 C-24.62021484 20.99584822 -24.79143324 16.72047371 -24.25 10.875 C-22.42465409 5.60177847 -19.64280797 3.07808914 -15.25 -0.125 C-10.0828841 -1.84737197 -5.14400242 -1.78061622 0 0 Z M-17.25 9.875 C-17.58 10.205 -17.91 10.535 -18.25 10.875 C-18.60212689 16.15690335 -18.7563371 19.61730495 -15.25 23.875 C-11.82823311 26.44132517 -8.40359579 26.23935051 -4.25 25.875 C-1.42724064 24.62044028 0.21288541 23.59115278 2.0625 21.125 C3.38189267 16.80698763 3.33520303 13.19170682 1.5 9.0625 C-0.43196848 6.6475394 -1.29775098 5.75269565 -4.25 4.875 C-10.69188682 4.1592348 -13.00867654 4.60547691 -17.25 9.875 Z " fill="#8C7E70" transform="translate(86.25,49.125)"/>
<path d="M0 0 C4.2478916 2.54873496 7.20023678 5.52843568 9.5625 9.875 C10.35876754 15.5626253 9.9346471 20.16532235 7.3125 25.3125 C4.05677085 29.09618523 1.5141191 31.62781923 -3.5859375 32.3828125 C-9.92204063 32.6432003 -14.01175204 31.97023818 -19 28 C-22.97023818 23.01175204 -23.6432003 18.92204063 -23.3828125 12.5859375 C-22.60361823 7.32240068 -20.05385393 4.79576726 -15.9375 1.6875 C-10.48877016 -1.4426214 -6.01392874 -1.59009342 0 0 Z M-15 8 C-17.15489416 11.23234123 -18.01704675 13.16470921 -17.9375 17.0625 C-16.54354347 21.43023045 -14.60989443 24.06795585 -10.625 26.375 C-7.27348387 27.17298003 -5.29688018 27.03027506 -2 26 C0.52726683 23.80970208 2.50012869 21.99974261 4 19 C4.04053539 14.80053329 3.67640997 11.12734994 1.5 7.5 C-3.83872766 4.2967634 -10.19257535 3.61675988 -15 8 Z " fill="#8C7E70" transform="translate(62,20)"/>
</svg>
